<svg xmlns="http://www.w3.org/2000/svg" viewBox="0 0 1905.48 772.55"><defs><style>.a{fill:#1d1d1b;}@media(prefers-color-scheme:dark){.a {fill:#ffffff;}}</style></defs><path class="a" d="M7.26,1346.28l425-772.56,423,772.56Zm594.19-142.69L427.17,865.21,247.79,1203.59Z" transform="translate(-7.26 -573.72)"/><path class="a" d="M697.25,895.33V587h158V871.33h348.57V587h158v759.31h-158V1014H855.22v169.86Z" transform="translate(-7.26 -573.72)"/><path class="a" d="M1434.56,587h163.25c179.38,0,314.93,133.52,314.93,298.63,0,135.55-63.19,235.43-168.17,284.35l161,176.33H1707.88l-273.32-296.62V830.9l209.11,229c12.93-3.77,33.52-11.52,52.73-28.39,65.15-57.16,78.75-187.61,9.65-256.37-40.38-40.18-94.58-45-117.41-45.46H1434.56Z" transform="translate(-7.26 -573.72)"/></svg>